<?xml version="1.0" encoding="UTF-8"?>
<svg xmlns="http://www.w3.org/2000/svg" version="1.1" width="200" height="200" viewBox="0 0 200 200"><rect x="0" y="0" width="200" height="200" fill="#ffffff"/><g transform="scale(8)"><g transform="translate(0,0)"><path fill-rule="evenodd" d="M8 0L8 1L9 1L9 2L10 2L10 3L11 3L11 1L13 1L13 2L12 2L12 4L11 4L11 5L10 5L10 4L9 4L9 5L10 5L10 8L9 8L9 6L8 6L8 8L9 8L9 10L8 10L8 9L7 9L7 8L6 8L6 9L7 9L7 10L5 10L5 11L3 11L3 9L5 9L5 8L3 8L3 9L2 9L2 8L0 8L0 12L1 12L1 13L0 13L0 17L1 17L1 15L2 15L2 17L3 17L3 16L5 16L5 17L8 17L8 18L9 18L9 20L8 20L8 22L9 22L9 21L11 21L11 20L10 20L10 16L12 16L12 15L13 15L13 14L11 14L11 15L10 15L10 12L11 12L11 13L14 13L14 12L15 12L15 15L14 15L14 16L13 16L13 17L11 17L11 19L12 19L12 21L16 21L16 22L15 22L15 23L18 23L18 22L19 22L19 24L16 24L16 25L19 25L19 24L21 24L21 25L22 25L22 24L24 24L24 25L25 25L25 20L24 20L24 19L25 19L25 18L24 18L24 16L25 16L25 14L24 14L24 13L25 13L25 10L24 10L24 9L25 9L25 8L24 8L24 9L19 9L19 8L18 8L18 9L19 9L19 10L16 10L16 8L17 8L17 5L16 5L16 8L14 8L14 7L15 7L15 5L12 5L12 4L17 4L17 3L14 3L14 2L15 2L15 1L14 1L14 0L11 0L11 1L9 1L9 0ZM16 0L16 2L17 2L17 0ZM11 5L11 7L12 7L12 9L10 9L10 10L9 10L9 11L8 11L8 13L9 13L9 11L10 11L10 10L12 10L12 11L13 11L13 12L14 12L14 10L12 10L12 9L14 9L14 8L13 8L13 7L14 7L14 6L13 6L13 7L12 7L12 5ZM1 9L1 11L2 11L2 9ZM20 10L20 11L21 11L21 10ZM22 10L22 11L24 11L24 10ZM5 11L5 12L7 12L7 11ZM17 11L17 12L16 12L16 13L17 13L17 14L16 14L16 16L14 16L14 17L13 17L13 18L12 18L12 19L16 19L16 16L17 16L17 15L18 15L18 14L20 14L20 16L21 16L21 18L22 18L22 19L21 19L21 20L22 20L22 22L21 22L21 21L19 21L19 22L21 22L21 24L22 24L22 22L23 22L23 19L24 19L24 18L23 18L23 17L22 17L22 15L21 15L21 14L23 14L23 13L24 13L24 12L20 12L20 13L18 13L18 12L19 12L19 11ZM2 13L2 15L6 15L6 16L9 16L9 14L7 14L7 13L6 13L6 14L3 14L3 13ZM20 13L20 14L21 14L21 13ZM6 14L6 15L7 15L7 14ZM23 15L23 16L24 16L24 15ZM17 17L17 20L20 20L20 17ZM18 18L18 19L19 19L19 18ZM10 22L10 23L8 23L8 25L11 25L11 22ZM12 22L12 23L14 23L14 22ZM12 24L12 25L15 25L15 24ZM0 0L0 7L7 7L7 0ZM1 1L1 6L6 6L6 1ZM2 2L2 5L5 5L5 2ZM18 0L18 7L25 7L25 0ZM19 1L19 6L24 6L24 1ZM20 2L20 5L23 5L23 2ZM0 18L0 25L7 25L7 18ZM1 19L1 24L6 24L6 19ZM2 20L2 23L5 23L5 20Z" fill="#000000"/></g></g></svg>
