<?xml version="1.0" encoding="UTF-8"?>
<svg xmlns="http://www.w3.org/2000/svg" version="1.1" width="200" height="200" viewBox="0 0 200 200"><rect x="0" y="0" width="200" height="200" fill="#ffffff"/><g transform="scale(8)"><g transform="translate(0,0)"><path fill-rule="evenodd" d="M11 0L11 1L9 1L9 2L11 2L11 1L13 1L13 2L12 2L12 4L13 4L13 2L14 2L14 3L15 3L15 4L14 4L14 5L11 5L11 6L10 6L10 8L9 8L9 9L8 9L8 8L5 8L5 11L4 11L4 9L2 9L2 8L0 8L0 9L1 9L1 10L0 10L0 11L1 11L1 13L0 13L0 17L1 17L1 13L2 13L2 11L3 11L3 14L2 14L2 15L3 15L3 16L2 16L2 17L4 17L4 16L5 16L5 15L7 15L7 16L6 16L6 17L7 17L7 16L9 16L9 17L8 17L8 20L9 20L9 19L10 19L10 18L11 18L11 19L12 19L12 21L13 21L13 19L14 19L14 21L16 21L16 22L15 22L15 23L14 23L14 22L10 22L10 21L11 21L11 20L10 20L10 21L9 21L9 22L10 22L10 23L8 23L8 25L9 25L9 24L10 24L10 25L11 25L11 24L12 24L12 25L15 25L15 23L16 23L16 25L19 25L19 24L21 24L21 25L22 25L22 24L21 24L21 23L20 23L20 22L19 22L19 21L21 21L21 22L22 22L22 23L23 23L23 22L24 22L24 25L25 25L25 20L24 20L24 19L25 19L25 18L24 18L24 19L23 19L23 20L21 20L21 19L22 19L22 18L23 18L23 15L24 15L24 16L25 16L25 14L24 14L24 13L25 13L25 10L24 10L24 9L22 9L22 8L20 8L20 9L19 9L19 10L18 10L18 11L17 11L17 10L16 10L16 9L17 9L17 6L16 6L16 8L14 8L14 9L15 9L15 11L14 11L14 12L15 12L15 16L13 16L13 17L12 17L12 15L14 15L14 14L11 14L11 15L10 15L10 16L9 16L9 15L8 15L8 14L10 14L10 11L11 11L11 10L10 10L10 8L11 8L11 9L12 9L12 10L13 10L13 9L12 9L12 7L13 7L13 6L14 6L14 7L15 7L15 4L17 4L17 0L16 0L16 3L15 3L15 2L14 2L14 0ZM8 3L8 5L10 5L10 4L9 4L9 3ZM8 6L8 7L9 7L9 6ZM11 6L11 7L12 7L12 6ZM6 9L6 10L8 10L8 9ZM9 10L9 11L6 11L6 12L5 12L5 13L6 13L6 14L7 14L7 13L6 13L6 12L9 12L9 11L10 11L10 10ZM22 10L22 12L20 12L20 14L19 14L19 13L18 13L18 12L19 12L19 11L18 11L18 12L17 12L17 11L16 11L16 13L17 13L17 15L16 15L16 16L15 16L15 17L13 17L13 18L12 18L12 17L11 17L11 16L10 16L10 17L9 17L9 18L10 18L10 17L11 17L11 18L12 18L12 19L13 19L13 18L14 18L14 19L16 19L16 16L17 16L17 15L18 15L18 14L19 14L19 15L20 15L20 16L21 16L21 18L22 18L22 15L23 15L23 13L24 13L24 11L23 11L23 10ZM12 11L12 12L11 12L11 13L13 13L13 11ZM4 14L4 15L5 15L5 14ZM21 14L21 15L22 15L22 14ZM17 17L17 20L20 20L20 17ZM18 18L18 19L19 19L19 18ZM22 21L22 22L23 22L23 21ZM17 22L17 23L18 23L18 24L19 24L19 22ZM12 23L12 24L14 24L14 23ZM0 0L0 7L7 7L7 0ZM1 1L1 6L6 6L6 1ZM2 2L2 5L5 5L5 2ZM18 0L18 7L25 7L25 0ZM19 1L19 6L24 6L24 1ZM20 2L20 5L23 5L23 2ZM0 18L0 25L7 25L7 18ZM1 19L1 24L6 24L6 19ZM2 20L2 23L5 23L5 20Z" fill="#000000"/></g></g></svg>
