<?xml version="1.0" encoding="UTF-8"?>
<svg xmlns="http://www.w3.org/2000/svg" version="1.1" width="200" height="200" viewBox="0 0 200 200"><rect x="0" y="0" width="200" height="200" fill="#ffffff"/><g transform="scale(6.897)"><g transform="translate(0,0)"><path fill-rule="evenodd" d="M9 0L9 1L8 1L8 3L9 3L9 4L8 4L8 8L6 8L6 9L5 9L5 10L4 10L4 8L3 8L3 9L2 9L2 8L0 8L0 15L1 15L1 18L0 18L0 19L1 19L1 18L2 18L2 21L3 21L3 18L2 18L2 17L4 17L4 15L3 15L3 16L2 16L2 14L1 14L1 12L2 12L2 13L5 13L5 14L6 14L6 15L7 15L7 16L5 16L5 17L10 17L10 18L11 18L11 17L12 17L12 16L13 16L13 17L14 17L14 18L13 18L13 20L12 20L12 19L10 19L10 20L9 20L9 18L4 18L4 20L6 20L6 21L7 21L7 20L6 20L6 19L8 19L8 23L9 23L9 24L10 24L10 25L8 25L8 26L9 26L9 27L8 27L8 29L11 29L11 28L12 28L12 29L14 29L14 28L12 28L12 24L14 24L14 25L13 25L13 27L15 27L15 29L18 29L18 28L20 28L20 29L22 29L22 28L23 28L23 29L24 29L24 28L23 28L23 27L22 27L22 28L21 28L21 26L20 26L20 25L22 25L22 26L24 26L24 27L27 27L27 29L28 29L28 27L29 27L29 26L28 26L28 25L25 25L25 24L28 24L28 22L29 22L29 21L27 21L27 20L29 20L29 17L28 17L28 15L29 15L29 14L24 14L24 16L26 16L26 15L27 15L27 17L28 17L28 18L27 18L27 20L26 20L26 22L27 22L27 23L25 23L25 20L22 20L22 18L23 18L23 19L25 19L25 18L26 18L26 17L25 17L25 18L24 18L24 17L21 17L21 16L23 16L23 14L22 14L22 15L21 15L21 13L23 13L23 12L21 12L21 11L22 11L22 10L23 10L23 9L25 9L25 11L26 11L26 12L25 12L25 13L26 13L26 12L27 12L27 13L29 13L29 12L28 12L28 10L29 10L29 9L28 9L28 8L26 8L26 9L25 9L25 8L22 8L22 9L20 9L20 8L21 8L21 5L18 5L18 7L17 7L17 3L18 3L18 4L20 4L20 3L21 3L21 0L17 0L17 1L16 1L16 0L15 0L15 1L14 1L14 3L13 3L13 0L12 0L12 1L11 1L11 2L9 2L9 1L10 1L10 0ZM19 1L19 2L18 2L18 3L20 3L20 1ZM16 2L16 3L17 3L17 2ZM12 3L12 4L9 4L9 5L10 5L10 6L9 6L9 7L10 7L10 8L8 8L8 9L6 9L6 10L5 10L5 12L9 12L9 14L8 14L8 16L9 16L9 15L11 15L11 16L10 16L10 17L11 17L11 16L12 16L12 14L10 14L10 13L12 13L12 12L13 12L13 15L14 15L14 16L15 16L15 18L14 18L14 20L13 20L13 21L14 21L14 22L15 22L15 23L14 23L14 24L16 24L16 23L17 23L17 24L18 24L18 25L17 25L17 26L16 26L16 25L15 25L15 27L16 27L16 28L17 28L17 26L18 26L18 27L20 27L20 26L19 26L19 25L20 25L20 20L21 20L21 19L20 19L20 18L21 18L21 17L19 17L19 16L18 16L18 18L16 18L16 17L17 17L17 16L15 16L15 15L16 15L16 13L15 13L15 12L16 12L16 9L15 9L15 10L14 10L14 12L13 12L13 8L17 8L17 9L18 9L18 10L17 10L17 12L18 12L18 14L17 14L17 15L18 15L18 14L19 14L19 15L20 15L20 16L21 16L21 15L20 15L20 14L19 14L19 13L20 13L20 11L21 11L21 10L20 10L20 9L19 9L19 8L20 8L20 6L19 6L19 7L18 7L18 8L17 8L17 7L16 7L16 6L15 6L15 5L16 5L16 4L14 4L14 5L13 5L13 3ZM11 5L11 6L10 6L10 7L11 7L11 6L12 6L12 8L13 8L13 6L12 6L12 5ZM14 6L14 7L15 7L15 6ZM10 8L10 10L9 10L9 9L8 9L8 10L6 10L6 11L8 11L8 10L9 10L9 11L11 11L11 10L12 10L12 9L11 9L11 8ZM1 9L1 10L2 10L2 9ZM26 9L26 10L28 10L28 9ZM19 10L19 11L18 11L18 12L19 12L19 11L20 11L20 10ZM6 13L6 14L7 14L7 13ZM14 14L14 15L15 15L15 14ZM18 18L18 19L15 19L15 20L14 20L14 21L16 21L16 22L17 22L17 23L18 23L18 22L17 22L17 20L18 20L18 21L19 21L19 20L20 20L20 19L19 19L19 18ZM18 19L18 20L19 20L19 19ZM0 20L0 21L1 21L1 20ZM21 21L21 24L24 24L24 21ZM9 22L9 23L10 23L10 24L11 24L11 22ZM22 22L22 23L23 23L23 22ZM10 25L10 26L11 26L11 25ZM27 26L27 27L28 27L28 26ZM10 27L10 28L11 28L11 27ZM25 28L25 29L26 29L26 28ZM0 0L0 7L7 7L7 0ZM1 1L1 6L6 6L6 1ZM2 2L2 5L5 5L5 2ZM22 0L22 7L29 7L29 0ZM23 1L23 6L28 6L28 1ZM24 2L24 5L27 5L27 2ZM0 22L0 29L7 29L7 22ZM1 23L1 28L6 28L6 23ZM2 24L2 27L5 27L5 24Z" fill="#000000"/></g></g></svg>
